          <svg
            xmlns="http://www.w3.org/2000/svg"
            width="6.6228in"
            height="0.600052in"
            viewBox="0 0 596 54">
            <path
              id="Header #1"
              fill="currentColor"
              stroke="black"
              strokeWidth="0.2"
              d="M 79.00,13.00
                C 79.00,13.00 79.00,44.00 79.00,44.00
                  79.00,44.00 96.00,44.00 96.00,44.00
                  96.00,44.00 96.00,48.00 96.00,48.00
                  96.00,48.00 74.00,48.00 74.00,48.00
                  74.00,48.00 74.00,6.00 74.00,6.00
                  78.93,6.87 78.91,8.20 79.00,13.00 Z
                M 136.40,16.00
                C 137.40,13.53 139.75,5.29 143.65,7.17
                  146.07,8.33 148.34,15.42 149.42,18.00
                  149.42,18.00 162.00,48.00 162.00,48.00
                  152.74,47.23 156.67,42.28 151.61,39.02
                  149.42,37.61 143.71,37.99 141.00,38.00
                  138.28,38.01 134.80,37.66 132.65,39.60
                  128.39,43.44 131.69,47.28 123.00,48.00
                  123.00,48.00 136.40,16.00 136.40,16.00 Z
                M 203.40,15.00
                C 206.37,19.94 211.04,26.88 213.00,32.00
                  213.00,32.00 215.00,32.00 215.00,32.00
                  215.00,32.00 223.80,16.00 223.80,16.00
                  223.80,16.00 229.53,7.60 229.53,7.60
                  229.53,7.60 234.00,6.00 234.00,6.00
                  234.00,6.00 234.00,48.00 234.00,48.00
                  234.00,48.00 230.00,48.00 230.00,48.00
                  230.00,48.00 230.00,17.00 230.00,17.00
                  230.00,17.00 215.00,40.00 215.00,40.00
                  215.00,40.00 213.00,40.00 213.00,40.00
                  213.00,40.00 198.00,17.00 198.00,17.00
                  198.00,17.00 198.00,48.00 198.00,48.00
                  198.00,48.00 194.00,48.00 194.00,48.00
                  194.00,48.00 194.00,6.00 194.00,6.00
                  199.84,7.00 200.53,10.21 203.40,15.00 Z
                M 289.96,8.70
                C 297.34,13.91 296.63,25.30 288.98,29.99
                  284.67,32.65 278.91,32.00 274.00,32.00
                  274.00,32.00 274.00,48.00 274.00,48.00
                  274.00,48.00 269.00,48.00 269.00,48.00
                  269.00,48.00 269.00,6.00 269.00,6.00
                  275.29,6.00 284.73,5.01 289.96,8.70 Z
                M 341.00,47.61
                C 314.98,53.53 310.17,7.89 336.00,6.10
                  340.94,5.75 347.15,7.26 350.43,11.21
                  353.38,14.77 352.39,18.10 348.94,16.84
                  346.01,15.76 343.83,11.97 339.00,11.24
                  330.96,10.03 325.09,17.71 324.34,25.00
                  323.67,31.41 327.13,38.88 333.00,41.83
                  341.32,46.00 348.22,39.33 349.00,31.00
                  347.29,31.00 338.07,31.85 339.45,28.18
                  340.58,25.20 351.16,24.85 353.47,29.25
                  354.22,31.26 354.34,42.64 353.47,44.85
                  352.82,47.80 350.01,48.78 349.00,43.00
                  346.35,45.14 344.44,46.83 341.00,47.61 Z
                M 380.00,16.00
                C 380.01,13.46 379.68,9.52 381.60,7.60
                  383.92,5.28 392.65,5.96 396.00,6.00
                  399.60,6.05 402.91,6.12 405.87,8.51
                  410.26,12.04 411.30,19.37 407.49,23.73
                  405.88,25.56 404.16,26.12 402.00,27.00
                  406.15,31.10 408.79,36.48 410.66,42.00
                  411.31,43.91 411.93,48.39 408.33,47.28
                  405.05,46.27 404.45,39.02 401.03,34.04
                  396.83,27.92 391.51,29.00 385.00,29.00
                  385.00,29.00 383.98,46.40 383.98,46.40
                  383.98,46.40 380.00,48.00 380.00,48.00
                  380.00,48.00 380.00,16.00 380.00,16.00 Z
                M 458.60,14.00
                C 458.60,14.00 469.56,41.00 469.56,41.00
                  470.12,42.67 471.38,48.88 467.33,46.83
                  464.68,45.49 463.97,40.48 462.16,38.31
                  459.87,35.56 456.24,36.01 453.00,36.00
                  450.07,36.00 445.82,35.57 443.50,37.60
                  440.90,39.86 439.16,49.12 435.57,46.83
                  432.95,45.16 435.97,39.07 436.85,37.00
                  439.65,30.40 446.17,11.08 450.39,7.04
                  456.01,5.31 456.83,9.61 458.60,14.00 Z
                M 496.00,13.00
                C 496.05,10.63 495.88,6.82 499.10,6.54
                  502.91,6.21 504.53,11.25 505.72,14.00
                  505.72,14.00 517.00,42.00 517.00,42.00
                  517.00,42.00 522.00,28.00 522.00,28.00
                  522.00,28.00 526.00,18.00 526.00,18.00
                  526.00,18.00 528.44,12.00 528.44,12.00
                  532.16,4.02 537.82,4.74 538.00,14.00
                  538.00,14.00 538.00,41.00 538.00,41.00
                  537.97,42.52 537.78,48.88 534.54,46.83
                  532.65,45.63 533.00,40.99 533.00,39.00
                  532.99,32.10 533.76,20.20 532.00,14.00
                  530.85,21.33 525.19,33.68 522.20,41.00
                  521.06,43.79 519.27,49.02 515.21,46.92
                  512.59,45.57 511.08,40.64 509.99,38.00
                  509.99,38.00 500.00,13.00 500.00,13.00
                  500.00,13.00 501.00,41.00 501.00,41.00
                  500.91,45.80 500.93,47.13 496.00,48.00
                  496.00,48.00 496.00,13.00 496.00,13.00 Z
                M 390.00,25.00
                C 392.53,25.00 395.54,25.07 398.00,24.47
                  399.25,24.16 400.67,23.67 401.72,22.91
                  403.39,21.72 404.35,20.03 404.55,17.99
                  405.47,8.49 388.30,8.89 385.99,11.74
                  384.48,13.61 385.00,22.29 385.00,25.00
                  385.00,25.00 390.00,25.00 390.00,25.00 Z
                M 286.78,25.83
                C 291.51,22.98 291.51,15.02 286.78,12.17
                  284.08,10.55 277.30,11.00 274.00,11.00
                  274.00,11.00 274.00,27.00 274.00,27.00
                  277.30,27.00 284.08,27.45 286.78,25.83 Z
                M 445.00,31.00
                C 445.00,31.00 460.00,31.00 460.00,31.00
                  460.00,31.00 453.00,11.00 453.00,11.00
                  453.00,11.00 445.00,31.00 445.00,31.00 Z
                M 135.00,33.00
                C 135.00,33.00 150.00,33.00 150.00,33.00
                  150.00,33.00 143.00,14.00 143.00,14.00
                  139.99,18.15 135.94,27.95 135.00,33.00 Z"
            />
          </svg>