<svg width="161" height="48" viewBox="0 0 161 48" fill="none" xmlns="http://www.w3.org/2000/svg">
<path d="M10.3382 47.9975C9.92222 47.9975 9.51628 47.9926 9.10355 47.9841C8.24854 47.9738 7.39552 47.9054 6.55151 47.7794C5.7645 47.6548 5.00211 47.4231 4.28947 47.0919C3.58336 46.7634 2.93934 46.3327 2.38207 45.8162C1.81673 45.3058 1.34606 44.7139 0.988708 44.0638C0.62742 43.4095 0.377388 42.7082 0.24732 41.9843C0.106859 41.2065 0.030863 40.4199 0.0199888 39.6315C0.0113325 39.3669 0 38.4857 0 38.4857V9.49828C0 9.49828 0.0120698 8.63068 0.0200571 8.37578C0.0304691 7.5886 0.106023 6.80329 0.246064 6.02664C0.376372 5.30074 0.626598 4.59741 0.98808 3.94098C1.34412 3.29137 1.81217 2.69898 2.37411 2.18678C2.93541 1.66971 3.58149 1.23677 4.2888 0.903746C4.9998 0.573578 5.76075 0.34349 6.54617 0.22119C7.39296 0.0939071 8.24893 0.0250918 9.1069 0.0153216L10.3389 0H150.654L151.901 0.0159364C152.751 0.0252212 153.6 0.0934226 154.439 0.21996C155.232 0.343794 156.001 0.575487 156.72 0.907422C158.137 1.57857 159.29 2.64038 160.017 3.94404C160.373 4.59594 160.619 5.29354 160.748 6.01316C160.89 6.79618 160.969 7.58767 160.985 8.3813C160.989 8.73667 160.989 9.11839 160.989 9.49828C161 9.96885 161 10.4167 161 10.8683V37.1304C161 37.5862 161 38.0311 160.989 38.4796C160.989 38.8876 160.989 39.2614 160.984 39.6462C160.968 40.4257 160.89 41.203 160.751 41.972C160.623 42.7012 160.374 43.4079 160.013 44.0676C159.653 44.7106 159.185 45.2974 158.627 45.8064C158.069 46.3257 157.424 46.7589 156.716 47.0895C155.999 47.4233 155.231 47.6558 154.439 47.7794C153.595 47.9061 152.741 47.9745 151.886 47.9841C151.486 47.9926 151.068 47.9975 150.661 47.9975L149.181 48L10.3382 47.9975Z" fill="#5850FA"/>
<path d="M29.9923 24.3761C30.0058 23.3287 30.284 22.3018 30.8012 21.3909C31.3183 20.4799 32.0575 19.7145 32.95 19.166C32.383 18.3564 31.6351 17.6901 30.7655 17.2201C29.8959 16.7501 28.9287 16.4893 27.9407 16.4584C25.8331 16.2372 23.7898 17.7193 22.7158 17.7193C21.621 17.7193 19.9674 16.4804 18.1867 16.517C17.0349 16.5542 15.9124 16.8891 14.9286 17.489C13.9447 18.0888 13.1331 18.9333 12.5727 19.94C10.1453 24.1418 11.956 30.3169 14.2812 33.7132C15.4445 35.3763 16.8042 37.234 18.5832 37.1682C20.3241 37.096 20.9743 36.0583 23.0758 36.0583C25.1577 36.0583 25.7677 37.1682 27.5829 37.1263C29.4509 37.096 30.6279 35.4558 31.7505 33.7769C32.5863 32.5919 33.2295 31.2822 33.6562 29.8963C32.5709 29.4374 31.6448 28.6692 30.9932 27.6876C30.3417 26.7059 29.9935 25.5542 29.9923 24.3761Z" fill="white"/>
<path d="M26.5634 14.2249C27.582 13.0024 28.0838 11.4311 27.9623 9.84473C26.4061 10.0081 24.9687 10.7517 23.9364 11.9273C23.4317 12.5016 23.0451 13.1697 22.7988 13.8934C22.5525 14.6172 22.4513 15.3824 22.5009 16.1453C23.2793 16.1533 24.0493 15.9846 24.753 15.652C25.4567 15.3193 26.0757 14.8314 26.5634 14.2249Z" fill="white"/>
<path d="M51.9989 32.9578H46.058L44.6313 37.1696H42.1149L47.7421 21.587H50.3565L55.9836 37.1696H53.4244L51.9989 32.9578ZM46.6733 31.0143H51.3824L49.061 24.1788H48.996L46.6733 31.0143Z" fill="white"/>
<path d="M68.1369 31.4899C68.1369 35.0204 66.2469 37.2886 63.3947 37.2886C62.6722 37.3264 61.9537 37.16 61.3214 36.8085C60.689 36.457 60.1685 35.9345 59.8194 35.301H59.7654V40.9281H57.4329V25.8088H59.6907V27.6984H59.7336C60.0988 27.0679 60.6281 26.5482 61.2652 26.1945C61.9023 25.8408 62.6235 25.6665 63.3518 25.69C66.2358 25.69 68.1369 27.9693 68.1369 31.4899ZM65.7395 31.4899C65.7395 29.1898 64.5505 27.6776 62.7365 27.6776C60.9544 27.6776 59.7556 29.2216 59.7556 31.4899C59.7556 33.779 60.9544 35.312 62.7365 35.312C64.5506 35.312 65.7395 33.8109 65.7395 31.4899Z" fill="white"/>
<path d="M80.6437 31.4899C80.6437 35.0204 78.7537 37.2886 75.9015 37.2886C75.179 37.3264 74.4604 37.16 73.8281 36.8085C73.1958 36.457 72.6753 35.9345 72.3262 35.301H72.2722V40.9281H69.9397V25.8088H72.1974V27.6984H72.2403C72.6055 27.0679 73.1348 26.5482 73.7719 26.1945C74.4091 25.8408 75.1302 25.6665 75.8586 25.69C78.7427 25.69 80.6437 27.9692 80.6437 31.4899ZM78.2462 31.4899C78.2462 29.1898 77.0573 27.6776 75.2433 27.6776C73.4611 27.6776 72.2624 29.2216 72.2624 31.4899C72.2624 33.779 73.4611 35.312 75.2433 35.312C77.0573 35.312 78.2463 33.8109 78.2463 31.4899H78.2462Z" fill="white"/>
<path d="M88.9094 32.8281C89.0822 34.3734 90.5837 35.3879 92.6355 35.3879C94.6015 35.3879 96.016 34.3733 96.016 32.98C96.016 31.7705 95.1629 31.0463 93.143 30.55L91.123 30.0635C88.261 29.3723 86.9324 28.0342 86.9324 25.8627C86.9324 23.1741 89.2759 21.3274 92.6037 21.3274C95.8971 21.3274 98.1548 23.1741 98.2308 25.8627H95.8762C95.7353 24.3076 94.4495 23.369 92.5705 23.369C90.6915 23.369 89.4058 24.3187 89.4058 25.7009C89.4058 26.8026 90.227 27.4509 92.2359 27.9471L93.9531 28.3687C97.1509 29.1247 98.4796 30.409 98.4796 32.6883C98.4796 35.6036 96.1569 37.4295 92.4627 37.4295C89.0062 37.4295 86.6725 35.6465 86.5217 32.828L88.9094 32.8281Z" fill="white"/>
<path d="M103.513 23.1201V25.8087H105.674V27.6554H103.513V33.9186C103.513 34.8916 103.946 35.345 104.896 35.345C105.152 35.3405 105.408 35.3225 105.663 35.291V37.1267C105.236 37.2065 104.802 37.2426 104.367 37.2345C102.067 37.2345 101.17 36.3706 101.17 34.1673V27.6554H99.5174V25.8087H101.17V23.1201H103.513Z" fill="white"/>
<path d="M106.926 31.4897C106.926 27.9152 109.032 25.6689 112.316 25.6689C115.61 25.6689 117.706 27.9151 117.706 31.4897C117.706 35.0741 115.621 37.3105 112.316 37.3105C109.011 37.3105 106.926 35.0741 106.926 31.4897ZM115.33 31.4897C115.33 29.0376 114.206 27.5904 112.316 27.5904C110.426 27.5904 109.303 29.0487 109.303 31.4897C109.303 33.9516 110.426 35.3878 112.316 35.3878C114.206 35.3878 115.33 33.9516 115.33 31.4897H115.33Z" fill="white"/>
<path d="M119.629 25.8087H121.853V27.7424H121.907C122.058 27.1385 122.412 26.6048 122.909 26.231C123.407 25.8572 124.018 25.6661 124.641 25.6898C124.909 25.6889 125.177 25.7181 125.44 25.7769V27.9581C125.1 27.8544 124.746 27.8068 124.392 27.8172C124.053 27.8034 123.715 27.8632 123.401 27.9923C123.088 28.1214 122.806 28.3168 122.575 28.5651C122.344 28.8135 122.17 29.1088 122.064 29.4309C121.958 29.7529 121.923 30.0941 121.961 30.431V37.1696H119.629L119.629 25.8087Z" fill="white"/>
<path d="M136.194 33.8327C135.88 35.8951 133.872 37.3105 131.301 37.3105C127.996 37.3105 125.944 35.0961 125.944 31.5436C125.944 27.9801 128.007 25.6689 131.203 25.6689C134.347 25.6689 136.324 27.8281 136.324 31.2728V32.0718H128.298V32.2127C128.261 32.6308 128.314 33.052 128.452 33.4484C128.59 33.8447 128.811 34.2071 129.1 34.5114C129.389 34.8158 129.74 35.0552 130.129 35.2136C130.518 35.3721 130.936 35.4461 131.355 35.4307C131.906 35.4823 132.46 35.3547 132.932 35.0668C133.405 34.7789 133.772 34.3461 133.979 33.8327L136.194 33.8327ZM128.309 30.442H133.99C134.011 30.066 133.954 29.6898 133.823 29.3369C133.692 28.9841 133.489 28.6622 133.227 28.3914C132.965 28.1207 132.65 27.9069 132.302 27.7636C131.954 27.6203 131.58 27.5505 131.203 27.5586C130.823 27.5563 130.447 27.6292 130.095 27.7732C129.744 27.9172 129.424 28.1294 129.155 28.3974C128.886 28.6655 128.673 28.9842 128.528 29.3351C128.383 29.686 128.308 30.0622 128.309 30.442V30.442Z" fill="white"/>
<path d="M45.0153 13.0232H46.0167C46.189 13.0447 46.364 13.0302 46.5305 12.9807C46.697 12.9312 46.8515 12.8477 46.9841 12.7356C47.1168 12.6235 47.2248 12.4851 47.3013 12.3292C47.3778 12.1732 47.4212 12.0031 47.4287 11.8296C47.4287 11.1391 46.909 10.6931 46.0277 10.6931C45.8511 10.6684 45.6713 10.6793 45.499 10.7253C45.3267 10.7712 45.1654 10.8512 45.0245 10.9605C44.8836 11.0698 44.7661 11.2063 44.6788 11.3617C44.5915 11.5172 44.5363 11.6886 44.5164 11.8658H43.4169C43.4359 11.5442 43.5208 11.2299 43.6665 10.9425C43.8121 10.6552 44.0154 10.4008 44.2637 10.1954C44.5119 9.98999 44.7998 9.83786 45.1094 9.74849C45.419 9.65912 45.7437 9.63443 46.0632 9.67594C47.5377 9.67594 48.5759 10.5013 48.5759 11.6893C48.5794 12.0873 48.4462 12.4745 48.1986 12.7861C47.951 13.0978 47.6039 13.3151 47.2154 13.4019V13.4901C47.676 13.5105 48.1098 13.7124 48.422 14.0517C48.7341 14.391 48.8992 14.84 48.8811 15.3006C48.847 15.6318 48.7472 15.9528 48.5874 16.2449C48.4276 16.5369 48.2111 16.7941 47.9506 17.0015C47.6901 17.2088 47.3908 17.362 47.0703 17.4522C46.7498 17.5424 46.4145 17.5677 46.0841 17.5266C45.753 17.5718 45.4162 17.5498 45.0937 17.462C44.7713 17.3742 44.4698 17.2224 44.2073 17.0157C43.9448 16.8089 43.7267 16.5514 43.5658 16.2586C43.405 15.9657 43.3047 15.6435 43.2711 15.3111H44.3877C44.4551 16.0273 45.1133 16.4894 46.0841 16.4894C47.0548 16.4894 47.6885 15.9704 47.6885 15.2388C47.6885 14.4968 47.0916 14.0397 46.0485 14.0397H45.0153V13.0232Z" fill="white"/>
<path d="M50.149 15.7471C50.149 14.73 50.9077 14.1436 52.251 14.0603L53.7819 13.9721V13.4844C53.7819 12.8876 53.3885 12.5506 52.6249 12.5506C52.0022 12.5506 51.572 12.7791 51.447 13.1786H50.3672C50.4811 12.2081 51.3955 11.5856 52.6776 11.5856C54.0945 11.5856 54.8937 12.2908 54.8937 13.4844V17.3451H53.8187V16.551H53.7305C53.5513 16.8358 53.2998 17.068 53.0016 17.2239C52.7033 17.3798 52.3691 17.4537 52.0329 17.4382C51.7956 17.4628 51.5558 17.4375 51.329 17.3639C51.1021 17.2902 50.8932 17.1698 50.7157 17.0105C50.5382 16.8512 50.396 16.6565 50.2984 16.4388C50.2008 16.2212 50.1499 15.9856 50.149 15.7471ZM53.7819 15.2643V14.7919L52.4018 14.8801C51.6234 14.9322 51.2704 15.1969 51.2704 15.695C51.2704 16.2036 51.7117 16.4995 52.3185 16.4995C52.4962 16.5175 52.6758 16.4996 52.8465 16.4468C53.0172 16.3939 53.1756 16.3073 53.3121 16.1921C53.4487 16.0768 53.5606 15.9353 53.6413 15.7759C53.722 15.6165 53.7699 15.4425 53.7819 15.2643Z" fill="white"/>
<path d="M57.8534 12.6335V17.3453H56.738V11.6948H60.4593V12.6334L57.8534 12.6335Z" fill="white"/>
<path d="M67.2196 14.5174C67.2196 16.3127 66.3114 17.4382 64.8847 17.4382C64.5344 17.4621 64.1847 17.3855 63.8765 17.2174C63.5684 17.0492 63.3147 16.7966 63.1454 16.4891H63.0572V19.2237H61.9418V11.6946H63.0155V12.6285H63.0988C63.2712 12.3103 63.5282 12.0459 63.8414 11.8646C64.1546 11.6833 64.5118 11.592 64.8736 11.6009C66.3114 11.6009 67.2196 12.7215 67.2196 14.5174ZM66.0724 14.5174C66.0724 13.3239 65.5073 12.6027 64.5623 12.6027C63.6235 12.6027 63.0363 13.3392 63.0363 14.5223C63.0363 15.7 63.6234 16.4371 64.5574 16.4371C65.5073 16.437 66.0724 15.7159 66.0724 14.5174Z" fill="white"/>
<path d="M68.7046 19.3691V18.4089C68.8253 18.4243 68.9469 18.4312 69.0686 18.4298C69.3062 18.4474 69.542 18.3766 69.7306 18.2311C69.9193 18.0855 70.0476 17.8755 70.0908 17.6412L70.1742 17.3661L68.1285 11.6948H69.3431L70.7601 16.1829H70.8483L72.2603 11.6948H73.4431L71.3362 17.5787C70.8533 18.9536 70.3189 19.3948 69.1667 19.3948C69.0735 19.3948 68.8088 19.3844 68.7046 19.3691Z" fill="white"/>
<path d="M74.3121 15.7417H75.4226C75.5316 16.2399 75.9987 16.4996 76.6519 16.4996C77.3947 16.4996 77.8507 16.1724 77.8507 15.6639C77.8507 15.1192 77.4413 14.8594 76.6519 14.8594H75.8062V13.993H76.6372C77.3113 13.993 77.6545 13.7338 77.6545 13.2614C77.6545 12.8466 77.3224 12.5299 76.6372 12.5299C76.0133 12.5299 75.5574 12.7946 75.485 13.2406H74.4101C74.4905 12.7281 74.7688 12.2675 75.1853 11.958C75.6018 11.6486 76.1231 11.5149 76.6372 11.5857C77.9806 11.5857 78.7491 12.1929 78.7491 13.1475C78.7554 13.4133 78.6702 13.6733 78.5077 13.8838C78.3453 14.0944 78.1155 14.2428 77.8568 14.3043V14.3925C78.1648 14.4323 78.4476 14.5837 78.6514 14.818C78.8552 15.0524 78.9658 15.3534 78.9624 15.6639C78.9624 16.738 78.048 17.4487 76.6519 17.4487C75.4176 17.4487 74.415 16.8832 74.3121 15.7417Z" fill="white"/>
<path d="M80.569 17.3453V11.6948H81.6746V15.5813H81.7629L84.3675 11.6948H85.473V17.3453H84.3675V13.438H84.2841L81.6746 17.3453L80.569 17.3453Z" fill="white"/>
<path d="M91.5632 12.6334H89.7834V17.3452H88.6668V12.6334H86.8871V11.6948H91.5632V12.6334Z" fill="white"/>
<path d="M97.5711 15.8195C97.4191 16.3359 97.0905 16.7825 96.6426 17.0813C96.1948 17.3801 95.6562 17.5121 95.1209 17.4542C94.7486 17.4641 94.3785 17.3928 94.0365 17.2453C93.6945 17.0978 93.3887 16.8777 93.1403 16.6002C92.8919 16.3227 92.7069 15.9945 92.5981 15.6383C92.4892 15.2822 92.4593 14.9066 92.5102 14.5377C92.4606 14.1677 92.4911 13.7913 92.5997 13.4341C92.7082 13.0769 92.8923 12.7472 93.1394 12.4672C93.3864 12.1873 93.6908 11.9637 94.0318 11.8116C94.3729 11.6595 94.7426 11.5825 95.116 11.5857C96.6886 11.5857 97.6385 12.6598 97.6385 14.4341V14.8233H93.6476V14.8858C93.63 15.0932 93.6559 15.302 93.7237 15.4987C93.7916 15.6955 93.8999 15.876 94.0416 16.0284C94.1834 16.1809 94.3555 16.302 94.5468 16.384C94.7382 16.466 94.9446 16.507 95.1528 16.5045C95.4194 16.5364 95.6895 16.4883 95.9287 16.3663C96.1679 16.2443 96.3654 16.054 96.4961 15.8195L97.5711 15.8195ZM93.6476 13.9985H96.501C96.5151 13.809 96.4894 13.6186 96.4255 13.4396C96.3617 13.2606 96.2611 13.0969 96.1302 12.959C95.9993 12.8212 95.841 12.7122 95.6655 12.6392C95.49 12.5661 95.3011 12.5305 95.1111 12.5348C94.9181 12.5321 94.7266 12.5682 94.5478 12.6409C94.369 12.7135 94.2066 12.8212 94.0702 12.9577C93.9338 13.0942 93.8261 13.2566 93.7535 13.4353C93.6809 13.6141 93.6449 13.8056 93.6476 13.9985H93.6476Z" fill="white"/>
<path d="M102.301 11.6948H104.849C105.955 11.6948 106.603 12.2548 106.603 13.1316C106.605 13.4098 106.511 13.6802 106.337 13.8974C106.163 14.1147 105.92 14.2657 105.648 14.3252V14.4134C105.978 14.4343 106.288 14.581 106.513 14.8235C106.738 15.0659 106.861 15.3854 106.857 15.716C106.857 16.7019 106.115 17.3452 104.875 17.3452H102.301V11.6948ZM103.406 12.5508V14.0139H104.512C105.186 14.0139 105.508 13.7548 105.508 13.2768C105.508 12.8363 105.228 12.5508 104.636 12.5508L103.406 12.5508ZM103.406 14.8338V16.4893H104.729C105.388 16.4893 105.741 16.1983 105.741 15.664C105.741 15.0985 105.342 14.8338 104.589 14.8338L103.406 14.8338Z" fill="white"/>
</svg>
