<svg width="161" height="48" viewBox="0 0 161 48" fill="none" xmlns="http://www.w3.org/2000/svg">
<path d="M155.037 0H5.96296C2.66971 0 0 2.68629 0 6V42C0 45.3137 2.66971 48 5.96296 48H155.037C158.33 48 161 45.3137 161 42V6C161 2.68629 158.33 0 155.037 0Z" fill="#5850FA"/>
<path d="M81.2625 26.0997C80.2577 26.1021 79.2761 26.4042 78.442 26.9679C77.6078 27.5316 76.9585 28.3315 76.5762 29.2665C76.1938 30.2015 76.0956 31.2296 76.294 32.2208C76.4923 33.212 76.9783 34.1217 77.6905 34.8349C78.4026 35.5482 79.309 36.0329 80.295 36.2278C81.281 36.4227 82.3022 36.3191 83.2297 35.93C84.1571 35.5409 84.949 34.8838 85.5053 34.0418C86.0616 33.1998 86.3572 32.2108 86.3549 31.1997C86.3646 30.5253 86.2393 29.8557 85.9866 29.231C85.7338 28.6062 85.3587 28.039 84.8835 27.5631C84.4084 27.0873 83.8429 26.7125 83.2208 26.4611C82.5988 26.2097 81.9328 26.0868 81.2625 26.0997ZM81.2625 34.2957C80.6466 34.3391 80.032 34.195 79.4986 33.8822C78.9652 33.5694 78.5376 33.1024 78.2715 32.5419C78.0054 31.9813 77.913 31.3532 78.0063 30.7391C78.0997 30.125 78.3745 29.5534 78.795 29.0986C79.2155 28.6437 79.7623 28.3267 80.3642 28.1887C80.9662 28.0506 81.5954 28.098 82.1703 28.3246C82.7451 28.5513 83.2389 28.9466 83.5875 29.4594C83.936 29.9721 84.1232 30.5785 84.1247 31.1997C84.1439 31.5934 84.0846 31.9869 83.9503 32.357C83.8159 32.7272 83.6093 33.0666 83.3425 33.3551C83.0758 33.6437 82.7543 33.8756 82.3971 34.0371C82.0398 34.1987 81.6541 34.2866 81.2625 34.2957ZM70.1475 26.0997C69.1427 26.1021 68.1612 26.4042 67.327 26.9679C66.4929 27.5316 65.8435 28.3315 65.4612 29.2665C65.0789 30.2015 64.9807 31.2296 65.179 32.2208C65.3773 33.212 65.8633 34.1217 66.5755 34.8349C67.2877 35.5482 68.1941 36.0329 69.18 36.2278C70.166 36.4227 71.1873 36.3191 72.1147 35.93C73.0421 35.5409 73.834 34.8838 74.3903 34.0418C74.9466 33.1998 75.2423 32.2108 75.2399 31.1997C75.2496 30.5253 75.1244 29.8557 74.8716 29.231C74.6188 28.6062 74.2437 28.039 73.7686 27.5631C73.2934 27.0873 72.728 26.7125 72.1059 26.4611C71.4838 26.2097 70.8178 26.0868 70.1475 26.0997ZM70.1475 34.2957C69.5317 34.3391 68.9171 34.195 68.3837 33.8822C67.8502 33.5694 67.4227 33.1024 67.1565 32.5419C66.8904 31.9813 66.798 31.3532 66.8914 30.7391C66.9847 30.125 67.2595 29.5534 67.68 29.0986C68.1005 28.6437 68.6473 28.3267 69.2492 28.1887C69.8512 28.0506 70.4805 28.098 71.0553 28.3246C71.6302 28.5513 72.124 28.9466 72.4725 29.4594C72.8211 29.9721 73.0083 30.5785 73.0098 31.1997C73.029 31.5934 72.9697 31.9869 72.8353 32.357C72.701 32.7272 72.4943 33.0666 72.2276 33.3551C71.9608 33.6437 71.6393 33.8756 71.2821 34.0371C70.9249 34.1987 70.5391 34.2866 70.1475 34.2957ZM56.9336 27.6717V29.8317H62.0856C62.0048 30.8491 61.5845 31.8091 60.893 32.5557C60.3762 33.0856 59.7546 33.5003 59.0685 33.7732C58.3823 34.046 57.6469 34.1709 56.9098 34.1397C55.3915 34.1397 53.9355 33.5329 52.862 32.4527C51.7884 31.3725 51.1853 29.9074 51.1853 28.3797C51.1853 26.8521 51.7884 25.387 52.862 24.3068C53.9355 23.2266 55.3915 22.6197 56.9098 22.6197C58.3653 22.598 59.7707 23.1541 60.8215 24.1677L62.3361 22.6437C61.6253 21.9363 60.7813 21.3788 59.8536 21.0038C58.926 20.6288 57.9332 20.4438 56.9336 20.4597C55.8734 20.4182 54.8158 20.5925 53.8241 20.9721C52.8324 21.3517 51.9271 21.9289 51.1624 22.6689C50.3977 23.409 49.7893 24.2968 49.3738 25.2792C48.9582 26.2615 48.744 27.3181 48.744 28.3857C48.744 29.4533 48.9582 30.51 49.3738 31.4923C49.7893 32.4746 50.3977 33.3624 51.1624 34.1025C51.9271 34.8426 52.8324 35.4198 53.8241 35.7994C54.8158 36.179 55.8734 36.3533 56.9336 36.3117C57.9538 36.3527 58.971 36.1761 59.9186 35.7935C60.8661 35.4109 61.7225 34.831 62.4315 34.0917C63.6838 32.7074 64.3511 30.8868 64.2919 29.0157C64.2962 28.5654 64.2603 28.1156 64.1846 27.6717H56.9336ZM110.97 29.3517C110.659 28.431 110.077 27.6271 109.302 27.0464C108.527 26.4656 107.595 26.1355 106.629 26.0997C105.977 26.0985 105.331 26.2318 104.732 26.4916C104.133 26.7513 103.593 27.132 103.146 27.61C102.699 28.088 102.354 28.6532 102.132 29.2706C101.911 29.888 101.818 30.5446 101.859 31.1997C101.848 32.2952 102.191 33.3645 102.834 34.2481C103.478 35.1316 104.388 35.7819 105.43 36.1019C106.471 36.4219 107.587 36.3943 108.611 36.0234C109.636 35.6524 110.513 34.958 111.113 34.0437L109.384 32.8437C109.126 33.2761 108.76 33.6331 108.323 33.8794C107.886 34.1256 107.392 34.2526 106.891 34.2477C106.374 34.2692 105.863 34.1329 105.425 33.8566C104.986 33.5803 104.641 33.177 104.435 32.6997L111.22 29.8797L110.97 29.3517ZM104.053 31.0557C104.029 30.683 104.079 30.3091 104.2 29.9561C104.321 29.603 104.511 29.2778 104.759 28.9996C105.007 28.7213 105.307 28.4956 105.642 28.3356C105.978 28.1756 106.342 28.0845 106.712 28.0677C107.097 28.0441 107.479 28.1352 107.812 28.3294C108.145 28.5237 108.414 28.8125 108.585 29.1597L104.053 31.0557ZM98.5432 35.9997H100.773V20.9997H98.5432V35.9997ZM94.8938 27.2397H94.8104C94.4772 26.858 94.066 26.5531 93.605 26.346C93.1439 26.1389 92.6438 26.0344 92.1389 26.0397C90.8357 26.1033 89.6067 26.669 88.7066 27.6196C87.8066 28.5702 87.3046 29.8328 87.3046 31.1457C87.3046 32.4587 87.8066 33.7212 88.7066 34.6718C89.6067 35.6224 90.8357 36.1881 92.1389 36.2517C92.6446 36.2619 93.1462 36.1597 93.608 35.9522C94.0698 35.7448 94.4803 35.4373 94.8104 35.0517H94.8938V35.7837C94.8938 37.7397 93.8563 38.7837 92.1867 38.7837C91.6289 38.7714 91.0874 38.5926 90.6308 38.27C90.1743 37.9473 89.8234 37.4955 89.6226 36.9717L87.6906 37.7757C88.0478 38.6784 88.6688 39.4508 89.4716 39.9908C90.2744 40.5307 91.2211 40.8128 92.1867 40.7997C94.7984 40.7997 96.957 39.2517 96.957 35.4837V26.3997H94.8938V27.2397ZM92.3298 34.2957C91.5484 34.2467 90.815 33.8998 90.2789 33.3257C89.7428 32.7516 89.4443 31.9935 89.4443 31.2057C89.4443 30.418 89.7428 29.6598 90.2789 29.0857C90.815 28.5116 91.5484 28.1648 92.3298 28.1157C92.7117 28.1323 93.0864 28.226 93.4316 28.3913C93.7767 28.5566 94.0853 28.79 94.339 29.0777C94.5927 29.3655 94.7863 29.7016 94.9082 30.0662C95.0302 30.4307 95.078 30.8162 95.0489 31.1997C95.0814 31.5846 95.036 31.972 94.9155 32.3387C94.795 32.7054 94.6018 33.0437 94.3476 33.3331C94.0934 33.6225 93.7835 33.857 93.4367 34.0225C93.0899 34.1879 92.7133 34.2809 92.3298 34.2957ZM121.417 20.9997H116.074V35.9997H118.304V30.3117H121.417C122.053 30.3577 122.691 30.2714 123.292 30.0582C123.893 29.845 124.444 29.5096 124.91 29.0727C125.377 28.6359 125.749 28.107 126.003 27.5191C126.257 26.9312 126.389 26.2969 126.389 25.6557C126.389 25.0145 126.257 24.3802 126.003 23.7923C125.749 23.2044 125.377 22.6756 124.91 22.2387C124.444 21.8019 123.893 21.4664 123.292 21.2533C122.691 21.0401 122.053 20.9538 121.417 20.9997ZM121.417 28.1997H118.304V23.0877H121.465C121.8 23.0877 122.132 23.1542 122.441 23.2832C122.751 23.4123 123.032 23.6014 123.269 23.8399C123.506 24.0783 123.694 24.3614 123.823 24.673C123.951 24.9846 124.017 25.3185 124.017 25.6557C124.017 25.993 123.951 26.3269 123.823 26.6385C123.694 26.95 123.506 27.2331 123.269 27.4716C123.032 27.71 122.751 27.8992 122.441 28.0283C122.132 28.1573 121.8 28.2237 121.465 28.2237L121.417 28.1997ZM135.18 26.0517C134.367 26.0013 133.558 26.1916 132.853 26.599C132.147 27.0063 131.575 27.6129 131.208 28.3437L133.176 29.1717C133.375 28.811 133.673 28.516 134.035 28.3222C134.397 28.1284 134.807 28.0442 135.215 28.0797C135.498 28.0465 135.785 28.0703 136.059 28.1497C136.333 28.2292 136.588 28.3627 136.811 28.5426C137.033 28.7224 137.217 28.945 137.352 29.1972C137.488 29.4494 137.572 29.7263 137.601 30.0117V30.1557C136.883 29.7764 136.085 29.5787 135.275 29.5797C133.152 29.5797 130.982 30.7797 130.982 32.9637C131.003 33.428 131.116 33.8832 131.315 34.3024C131.515 34.7216 131.796 35.0963 132.142 35.4041C132.488 35.7119 132.892 35.9466 133.329 36.0943C133.767 36.242 134.23 36.2996 134.691 36.2637C135.25 36.2949 135.808 36.1757 136.307 35.9185C136.806 35.6612 137.227 35.2751 137.529 34.7997H137.601V35.9997H139.747V30.2277C139.747 27.5997 137.768 26.0757 135.227 26.0757L135.18 26.0517ZM134.905 34.2717C134.178 34.2717 133.164 33.8997 133.164 32.9997C133.164 31.7997 134.428 31.3917 135.549 31.3917C136.258 31.3741 136.958 31.5482 137.577 31.8957C137.502 32.5474 137.195 33.1497 136.712 33.591C136.23 34.0323 135.605 34.2827 134.953 34.2957L134.905 34.2717ZM147.571 26.3997L145.019 32.9037H144.947L142.299 26.3997H139.914L143.886 35.4957L141.62 40.5477H143.945L150.051 26.3997H147.571ZM127.535 35.9997H129.753V20.9997H127.535V35.9997Z" fill="white"/>
<path d="M12.451 9.04811C12.058 9.51566 11.8575 10.1167 11.8905 10.7281V37.2721C11.8499 37.8846 12.0514 38.4884 12.451 38.9521L12.5345 39.0481L27.3107 24.1801V23.8201L12.5345 8.96411L12.451 9.04811Z" fill="url(#paint0_linear)"/>
<path d="M32.2004 29.1363L27.3108 24.1803V23.8203L32.2004 18.8643L32.3078 18.9363L38.1634 22.2723C39.833 23.2203 39.833 24.7803 38.1634 25.7403L32.3316 29.0763L32.2004 29.1363Z" fill="url(#paint1_linear)"/>
<path d="M32.3429 29.064L27.3101 24L12.4504 38.952C12.7874 39.2538 13.2188 39.4275 13.6697 39.4428C14.1206 39.4582 14.5626 39.3142 14.9191 39.036L32.3429 29.064Z" fill="url(#paint2_linear)"/>
<path d="M32.3429 18.9361L14.9191 8.97613C14.5649 8.69403 14.1233 8.5466 13.6717 8.55977C13.2202 8.57294 12.7878 8.74586 12.4504 9.04813L27.3101 24.0001L32.3429 18.9361Z" fill="url(#paint3_linear)"/>
<path opacity="0.2" d="M32.1998 28.9561L14.9191 38.8561C14.5756 39.1169 14.1569 39.2581 13.7265 39.2581C13.2961 39.2581 12.8775 39.1169 12.5339 38.8561L12.4504 38.9401L12.5339 39.0361C12.8775 39.2969 13.2961 39.4381 13.7265 39.4381C14.1569 39.4381 14.5756 39.2969 14.9191 39.0361L32.3429 29.0641L32.1998 28.9561Z" fill="black"/>
<path opacity="0.12" d="M12.4513 38.7843C12.0682 38.3083 11.8805 37.703 11.9265 37.0923V37.2723C11.8859 37.8847 12.0874 38.4885 12.487 38.9523L12.5705 38.8683L12.4513 38.7843Z" fill="black"/>
<path opacity="0.12" d="M38.1629 25.56L32.2 28.956L32.3073 29.064L38.1629 25.728C38.5086 25.5809 38.8084 25.3428 39.0309 25.0387C39.2533 24.7346 39.3902 24.3758 39.4271 24C39.3525 24.3415 39.1993 24.6606 38.9797 24.9315C38.7601 25.2025 38.4803 25.4178 38.1629 25.56Z" fill="black"/>
<path opacity="0.25" d="M14.9193 9.14378L38.163 22.4398C38.4804 22.582 38.7601 22.7973 38.9797 23.0682C39.1993 23.3392 39.3525 23.6583 39.4271 23.9998C39.3903 23.624 39.2534 23.2652 39.0309 22.9611C38.8084 22.657 38.5086 22.4188 38.163 22.2718L14.9193 8.97578C13.2616 8.01578 11.8901 8.80778 11.8901 10.7278V10.9078C11.9259 8.98778 13.2616 8.19578 14.9193 9.14378Z" fill="white"/>
<path d="M50.2197 17.1239H49.3491V14.7239H50.0885C50.4212 14.3605 50.6714 13.9287 50.8217 13.4583C50.972 12.9879 51.0189 12.4903 50.9591 11.9999V8.3999H55.7295V14.7119H56.5285V17.1119H55.646V15.5999H50.2197V17.1239ZM51.8774 11.9999C51.9306 12.9638 51.6937 13.9215 51.1976 14.7479H54.7754V9.2879H51.8774V11.9999Z" fill="white"/>
<path d="M63.6958 14.6639C63.3524 15.0104 62.9444 15.2853 62.4952 15.4729C62.046 15.6605 61.5644 15.7571 61.0781 15.7571C60.5917 15.7571 60.1102 15.6605 59.661 15.4729C59.2118 15.2853 58.8038 15.0104 58.4603 14.6639C57.7781 13.9469 57.3972 12.9926 57.3972 11.9999C57.3972 11.0073 57.7781 10.0529 58.4603 9.33593C58.8038 8.98943 59.2118 8.71451 59.661 8.52693C60.1102 8.33935 60.5917 8.2428 61.0781 8.2428C61.5644 8.2428 62.046 8.33935 62.4952 8.52693C62.9444 8.71451 63.3524 8.98943 63.6958 9.33593C64.0403 9.68633 64.3117 10.1025 64.494 10.56C64.6763 11.0175 64.7658 11.5071 64.7572 11.9999C64.7713 12.4935 64.6844 12.9847 64.5018 13.443C64.3192 13.9013 64.0449 14.3169 63.6958 14.6639ZM59.1282 14.0639C59.3795 14.3265 59.6817 14.5345 60.016 14.6748C60.3504 14.8152 60.7099 14.885 61.0721 14.8799C61.4347 14.8872 61.7948 14.8183 62.1295 14.6778C62.4641 14.5374 62.7661 14.3283 63.0161 14.0639C63.5306 13.5013 63.8163 12.7646 63.8163 11.9999C63.8163 11.2353 63.5306 10.4986 63.0161 9.93593C62.7661 9.67157 62.4641 9.46249 62.1295 9.32201C61.7948 9.18152 61.4347 9.1127 61.0721 9.11993C60.7099 9.11487 60.3504 9.18468 60.016 9.32504C59.6817 9.4654 59.3795 9.67332 59.1282 9.93593C58.6212 10.5023 58.3406 11.2376 58.3406 11.9999C58.3406 12.7622 58.6212 13.4975 59.1282 14.0639Z" fill="white"/>
<path d="M69.3842 15.756C68.9017 15.7637 68.4226 15.673 67.9758 15.4894C67.529 15.3059 67.1237 15.0333 66.7844 14.688C66.0962 13.9644 65.7122 13.0016 65.7122 12C65.7122 10.9985 66.0962 10.0356 66.7844 9.31204C67.1293 8.96085 67.5423 8.68481 67.9978 8.50108C68.4533 8.31735 68.9414 8.22985 69.4319 8.24404C69.9312 8.22983 70.4271 8.33054 70.8818 8.53851C71.3365 8.74648 71.738 9.0562 72.0556 9.44404L71.4236 10.068C71.1893 9.76494 70.8861 9.52283 70.5396 9.36205C70.193 9.20127 69.8132 9.12651 69.4319 9.14404C69.0648 9.13462 68.6997 9.20111 68.3592 9.33941C68.0187 9.4777 67.71 9.68485 67.4522 9.94804C66.9385 10.5159 66.6538 11.2562 66.6538 12.024C66.6538 12.7919 66.9385 13.5322 67.4522 14.1C67.71 14.3632 68.0187 14.5704 68.3592 14.7087C68.6997 14.847 69.0648 14.9135 69.4319 14.904C69.8417 14.8923 70.244 14.7907 70.6107 14.6062C70.9774 14.4217 71.2996 14.1589 71.5547 13.836L72.1987 14.472C71.872 14.866 71.4654 15.1851 71.0062 15.408C70.4988 15.6465 69.9441 15.7655 69.3842 15.756Z" fill="white"/>
<path d="M75.9446 15.5999H75.0263V9.2879H73.0227V8.3999H77.9362V9.2879H75.9446V15.5999Z" fill="white"/>
<path d="M84.2557 8.3999L81.5485 14.4719C81.4829 14.7154 81.3654 14.9415 81.2042 15.1348C81.0431 15.328 80.8421 15.4836 80.6152 15.5909C80.3883 15.6982 80.1409 15.7546 79.8903 15.7562C79.6396 15.7577 79.3915 15.7044 79.1633 15.5999L79.4019 14.7479C79.5478 14.8304 79.7116 14.8757 79.8789 14.8799C80.0554 14.8888 80.2303 14.8427 80.3798 14.7479C80.5247 14.6266 80.6356 14.4695 80.7018 14.2919L80.9642 13.7159L78.579 8.3999H79.6642L81.4293 12.5279L83.1705 8.3999H84.2557Z" fill="white"/>
<path d="M85.293 15.5999V8.3999H90.4688V15.5999H89.5505V9.2879H86.2113V15.5999H85.293Z" fill="white"/>
<path d="M92.1052 15.5999V8.3999H93.0235V11.4839H96.6013V8.3999H97.5315V15.5999H96.6013V12.3479H93.0235V15.5999H92.1052Z" fill="white"/>
<path d="M105.019 14.6639C104.675 15.0108 104.266 15.286 103.816 15.4737C103.365 15.6615 102.883 15.7581 102.396 15.7581C101.908 15.7581 101.426 15.6615 100.976 15.4737C100.525 15.286 100.116 15.0108 99.7719 14.6639C99.0896 13.9469 98.7087 12.9926 98.7087 11.9999C98.7087 11.0073 99.0896 10.0529 99.7719 9.33593C100.115 8.98943 100.523 8.71451 100.973 8.52693C101.422 8.33935 101.903 8.2428 102.39 8.2428C102.876 8.2428 103.358 8.33935 103.807 8.52693C104.256 8.71451 104.664 8.98943 105.007 9.33593C105.684 10.0557 106.061 11.009 106.061 11.9999C106.061 12.9909 105.684 13.9441 105.007 14.6639H105.019ZM100.452 14.0639C100.702 14.3283 101.004 14.5374 101.338 14.6778C101.673 14.8183 102.033 14.8872 102.396 14.8799C102.758 14.885 103.117 14.8152 103.452 14.6748C103.786 14.5345 104.088 14.3265 104.339 14.0639C104.847 13.4975 105.127 12.7622 105.127 11.9999C105.127 11.2376 104.847 10.5023 104.339 9.93593C104.088 9.67332 103.786 9.4654 103.452 9.32504C103.117 9.18468 102.758 9.11487 102.396 9.11993C102.033 9.1127 101.673 9.18152 101.338 9.32201C101.004 9.46249 100.702 9.67157 100.452 9.93593C99.9371 10.4986 99.6514 11.2353 99.6514 11.9999C99.6514 12.7646 99.9371 13.5013 100.452 14.0639Z" fill="white"/>
<path d="M109.826 15.6V8.40001H112.414C112.95 8.39459 113.47 8.59152 113.869 8.95201C114.068 9.12603 114.227 9.34198 114.334 9.5846C114.441 9.82722 114.494 10.0906 114.489 10.356C114.492 10.6793 114.401 10.9963 114.227 11.268C114.051 11.5257 113.807 11.7292 113.523 11.856C113.867 11.9745 114.17 12.1913 114.394 12.48C114.613 12.7741 114.73 13.1324 114.728 13.5C114.734 13.7766 114.679 14.0512 114.568 14.3043C114.457 14.5573 114.291 14.7825 114.084 14.964C113.67 15.3516 113.122 15.5624 112.557 15.552L109.826 15.6ZM110.744 11.484H112.414C112.57 11.4931 112.726 11.4665 112.871 11.4063C113.016 11.346 113.145 11.2536 113.249 11.136C113.451 10.9366 113.567 10.6649 113.571 10.38C113.582 10.0943 113.484 9.81504 113.296 9.60001C113.196 9.4881 113.073 9.39993 112.934 9.34183C112.796 9.28374 112.647 9.25716 112.497 9.26401H110.78L110.744 11.484ZM110.744 14.712H112.605C112.766 14.7175 112.927 14.6869 113.075 14.6226C113.224 14.5583 113.356 14.4618 113.463 14.34C113.669 14.1187 113.784 13.8272 113.785 13.524C113.778 13.2234 113.659 12.9364 113.452 12.72C113.337 12.5985 113.198 12.5027 113.043 12.4386C112.889 12.3745 112.724 12.3437 112.557 12.348H110.744V14.712Z" fill="white"/>
<defs>
<linearGradient id="paint0_linear" x1="25.9989" y1="10.4521" x2="5.86326" y2="30.4634" gradientUnits="userSpaceOnUse">
<stop stop-color="#00A0FF"/>
<stop offset="0.01" stop-color="#00A1FF"/>
<stop offset="0.26" stop-color="#00BEFF"/>
<stop offset="0.51" stop-color="#00D2FF"/>
<stop offset="0.76" stop-color="#00DFFF"/>
<stop offset="1" stop-color="#00E3FF"/>
</linearGradient>
<linearGradient id="paint1_linear" x1="40.3458" y1="24.0003" x2="11.497" y2="24.0003" gradientUnits="userSpaceOnUse">
<stop stop-color="#FFE000"/>
<stop offset="0.41" stop-color="#FFBD00"/>
<stop offset="0.78" stop-color="#FFA500"/>
<stop offset="1" stop-color="#FF9C00"/>
</linearGradient>
<linearGradient id="paint2_linear" x1="29.6118" y1="26.76" x2="2.30044" y2="53.8909" gradientUnits="userSpaceOnUse">
<stop stop-color="#FF3A44"/>
<stop offset="1" stop-color="#C31162"/>
</linearGradient>
<linearGradient id="paint3_linear" x1="8.7057" y1="0.216135" x2="20.8975" y2="12.3326" gradientUnits="userSpaceOnUse">
<stop stop-color="#32A071"/>
<stop offset="0.07" stop-color="#2DA771"/>
<stop offset="0.48" stop-color="#15CF74"/>
<stop offset="0.8" stop-color="#06E775"/>
<stop offset="1" stop-color="#00F076"/>
</linearGradient>
</defs>
</svg>
