<?xml version="1.0" standalone="no"?>
<!DOCTYPE svg PUBLIC "-//W3C//DTD SVG 20010904//EN"
 "http://www.w3.org/TR/2001/REC-SVG-20010904/DTD/svg10.dtd">
<svg version="1.0" xmlns="http://www.w3.org/2000/svg"
 width="520.000000pt" height="520.000000pt" viewBox="0 0 520.000000 520.000000"
 preserveAspectRatio="xMidYMid meet">
<metadata>
Created by potrace 1.11, written by Peter Selinger 2001-2013
</metadata>
<g transform="translate(0.000000,520.000000) scale(0.100000,-0.100000)"
fill="#000000" stroke="none">
<path d="M1934 5124 c-24 -25 -65 -88 -92 -141 l-49 -95 -30 53 c-16 30 -33
66 -36 81 -14 55 -82 39 -104 -24 -6 -18 -17 -70 -24 -115 -7 -46 -16 -83 -20
-83 -8 0 -66 27 -111 51 -68 36 -87 -29 -49 -166 11 -38 19 -70 18 -71 -1 0
-42 3 -90 9 -94 10 -137 2 -137 -28 0 -9 37 -33 93 -61 114 -57 146 -81 198
-149 40 -54 41 -55 31 -102 -6 -27 -14 -73 -17 -103 -10 -89 -12 -93 -50 -87
-46 8 -59 -10 -51 -70 7 -53 -8 -96 -36 -101 -12 -2 -18 7 -23 37 -8 48 -118
236 -151 257 -29 20 -62 10 -70 -21 -3 -13 -1 -44 4 -69 5 -25 7 -46 3 -46 -3
1 -49 7 -101 16 -52 8 -134 17 -182 21 -86 5 -87 5 -99 -20 -10 -22 -8 -30 10
-56 12 -17 35 -38 51 -48 17 -9 30 -20 30 -24 0 -3 -27 -14 -61 -23 -88 -25
-186 -72 -198 -95 -29 -53 3 -112 80 -149 l58 -28 -49 -42 c-54 -47 -76 -100
-65 -158 8 -46 56 -84 105 -84 38 0 38 0 30 -32 -17 -68 -18 -106 -5 -125 12
-15 17 -16 32 -6 10 7 41 24 68 37 46 22 54 24 95 13 49 -13 88 -33 80 -40 -3
-3 -24 -7 -48 -11 -55 -7 -62 -12 -62 -40 0 -18 -8 -25 -38 -34 -52 -16 -84
-47 -80 -80 3 -24 7 -27 46 -28 29 -1 50 -8 67 -24 l24 -23 -30 -59 c-21 -41
-29 -71 -27 -96 3 -33 6 -37 35 -40 17 -2 45 4 62 12 50 26 54 22 48 -39 -12
-120 37 -152 115 -75 23 22 44 40 47 40 14 0 31 -63 20 -76 -10 -12 12 -44 32
-44 15 0 69 -43 69 -54 0 -6 -24 -21 -54 -34 -99 -43 -146 -119 -83 -136 20
-5 17 -10 -35 -60 -49 -45 -58 -59 -58 -88 0 -40 14 -55 58 -64 18 -4 32 -9
32 -11 0 -3 -16 -26 -34 -52 -72 -98 -100 -182 -80 -236 10 -26 59 -46 95 -38
29 5 32 4 25 -13 -15 -39 -17 -139 -3 -164 11 -22 19 -25 61 -23 33 1 55 8 70
22 12 12 25 21 28 21 4 0 9 -19 13 -42 13 -77 73 -107 110 -55 14 19 16 20 33
4 10 -9 33 -17 50 -17 26 0 38 8 63 43 17 23 42 63 55 90 13 26 28 47 33 47
11 0 18 -54 26 -180 11 -175 33 -248 71 -233 13 5 15 14 10 42 -16 87 -25 163
-31 251 -6 110 -11 128 -71 310 -47 141 -134 341 -163 375 -10 11 -23 45 -30
75 -7 30 -23 101 -36 157 -42 180 -44 232 -27 573 7 141 13 187 31 235 12 33
30 85 40 115 19 60 103 222 159 310 76 119 294 286 442 338 89 31 273 57 405
57 134 -1 301 -29 422 -72 103 -36 228 -147 359 -318 28 -35 124 -243 124
-266 0 -5 11 -26 25 -47 13 -20 31 -68 40 -107 8 -38 19 -88 25 -110 32 -130
52 -432 35 -530 -15 -86 -69 -270 -82 -278 -7 -4 -13 -16 -13 -25 0 -9 -20
-57 -45 -107 -25 -49 -45 -95 -45 -101 0 -7 -25 -70 -56 -141 -64 -144 -102
-237 -149 -368 -18 -49 -43 -112 -56 -140 -19 -42 -23 -71 -27 -184 -4 -119
-6 -134 -22 -138 -23 -6 -33 -30 -17 -40 7 -4 41 -8 77 -8 63 0 65 -1 68 -27
3 -23 -2 -30 -30 -42 -18 -8 -45 -17 -60 -21 -52 -10 -33 -42 38 -64 45 -14
94 -53 94 -75 0 -25 -87 -86 -125 -86 -32 0 -14 -39 36 -76 63 -48 80 -80 87
-160 4 -57 3 -63 -18 -74 -20 -11 -93 -10 -165 2 -14 2 -21 -3 -23 -18 -3 -18
5 -25 44 -38 116 -39 224 7 224 96 0 72 -24 140 -65 186 l-42 46 31 26 c17 15
38 29 48 33 45 16 25 114 -32 152 -30 20 -39 35 -20 35 5 0 17 14 26 31 29 58
-2 128 -60 134 -14 2 -29 6 -35 9 -11 7 -8 194 4 239 9 33 18 33 70 4 31 -17
43 -33 60 -77 19 -49 24 -55 50 -55 25 0 32 6 40 32 l10 31 22 -24 c26 -29 37
-30 61 -6 18 18 19 18 42 0 30 -25 72 -20 85 10 12 27 17 27 40 2 20 -22 67
-27 83 -7 6 6 12 26 14 42 3 28 6 30 53 35 l50 5 0 117 0 116 39 9 c29 6 45
16 56 36 14 26 13 31 -29 110 -48 93 -48 94 13 176 14 19 26 48 26 63 0 24 -7
32 -35 44 -38 15 -43 30 -22 59 12 16 18 16 47 7 48 -17 117 -15 128 3 7 14
14 13 53 -9 49 -28 91 -33 108 -13 8 10 6 28 -9 70 -11 31 -20 72 -20 92 l0
35 36 -15 c53 -22 111 -20 124 4 19 37 10 58 -44 104 -54 47 -86 97 -86 136 0
25 29 53 95 90 47 26 105 92 105 118 0 15 35 23 107 23 34 0 64 4 67 9 4 5 -1
35 -9 66 -19 75 -10 90 63 110 31 9 63 18 70 20 28 9 8 45 -68 120 -45 44 -89
94 -99 112 l-19 31 27 26 c15 14 35 26 44 26 22 0 77 58 77 82 0 30 -42 61
-116 87 -38 13 -81 30 -96 38 -37 18 -52 77 -44 171 5 61 3 74 -10 79 -34 13
-214 -95 -253 -153 -27 -39 -37 -42 -46 -13 -5 14 2 33 20 59 46 66 31 90 -69
105 l-38 6 3 77 c4 75 3 77 -20 80 -13 2 -44 -4 -68 -13 -34 -13 -47 -15 -56
-5 -9 9 -6 16 12 31 13 10 29 19 35 19 7 0 23 11 35 24 l23 25 -25 25 c-15 15
-38 26 -52 26 -38 0 -23 15 30 30 55 15 67 30 69 77 1 33 -3 39 -34 55 -19 9
-54 20 -78 24 -23 3 -52 14 -62 23 -20 16 -19 18 35 86 30 39 55 77 55 86 0
22 -72 57 -107 53 -16 -2 -55 -7 -89 -10 l-61 -7 -6 31 c-3 17 3 66 14 113 22
91 20 109 -11 109 -26 0 -58 -20 -143 -91 -95 -79 -103 -80 -133 -13 -13 30
-24 65 -24 77 0 31 -14 50 -35 45 -22 -4 -27 -14 -89 -160 l-12 -27 -44 30
c-25 17 -54 39 -66 50 -27 25 -49 24 -68 -3 -21 -29 -20 -64 4 -168 20 -91 16
-110 -24 -110 -46 0 -58 21 -53 86 3 32 8 74 12 92 10 44 -14 43 -66 -2 -42
-36 -117 -61 -150 -51 -20 7 -42 42 -53 88 -9 38 -47 37 -83 -4 -49 -55 -55
-60 -77 -57 -20 3 -21 8 -18 100 2 83 0 98 -15 110 -14 10 -18 27 -18 76 -1
50 -5 66 -22 83 -19 19 -25 20 -54 10 -19 -6 -45 -23 -60 -37 l-26 -25 1 99
c1 108 -8 132 -51 132 -35 0 -61 -16 -121 -74 -59 -57 -61 -57 -87 28 -8 28
-21 53 -28 58 -29 19 -61 7 -103 -38z m76 -25 c0 -26 52 -126 72 -138 19 -12
26 -8 91 58 39 39 76 71 84 71 11 0 13 -22 12 -106 -2 -92 0 -109 15 -120 24
-17 60 -3 103 38 18 18 36 29 39 25 11 -11 7 -53 -11 -106 -20 -62 -15 -85 20
-79 22 5 25 2 25 -22 0 -18 -8 -33 -23 -43 -21 -14 -23 -21 -19 -79 3 -52 1
-68 -13 -82 -18 -18 -66 -15 -73 5 -7 18 -34 40 -46 36 -6 -2 -10 -22 -8 -48
4 -82 1 -86 -72 -81 -36 2 -82 1 -101 -2 -30 -6 -36 -11 -33 -29 2 -16 17 -28
56 -43 71 -28 105 -60 89 -85 -11 -17 -12 -17 -43 1 -41 26 -53 25 -84 -5
l-27 -25 -18 20 c-33 36 -66 23 -80 -32 -7 -26 -8 -27 -31 -12 -17 11 -35 14
-64 9 l-40 -7 -1 49 c-2 153 -30 179 -97 94 -22 -28 -43 -56 -45 -63 -4 -10
-9 -9 -17 4 -26 42 -62 77 -74 72 -7 -3 -33 21 -59 55 -41 52 -126 121 -149
121 -4 0 -8 4 -8 9 0 4 22 4 50 -2 27 -5 56 -7 65 -4 17 7 21 57 4 74 -14 14
-49 152 -40 158 4 2 34 -9 67 -26 32 -16 70 -28 84 -27 22 3 26 9 31 53 8 68
29 189 34 193 2 2 21 -28 42 -67 38 -70 69 -99 95 -88 8 3 38 53 68 112 50
102 101 175 121 175 5 0 9 -5 9 -11z m1580 -404 c-17 -52 -8 -141 17 -166 18
-19 25 -19 112 -9 51 7 97 8 102 3 4 -4 -8 -28 -28 -53 -41 -51 -67 -106 -59
-126 7 -18 84 -56 126 -61 38 -6 70 -19 70 -31 0 -4 -43 -23 -96 -41 -107 -38
-141 -59 -131 -85 5 -13 18 -16 54 -15 44 1 140 -18 102 -20 -9 -1 -32 -12
-52 -25 -22 -15 -44 -22 -56 -19 -28 7 -47 -11 -78 -70 l-25 -50 -23 29 -23
29 -22 -20 c-13 -11 -31 -39 -42 -62 -21 -47 -33 -54 -43 -23 -15 46 -80 1
-106 -72 -15 -44 -22 -47 -36 -15 -14 29 -137 182 -161 199 -11 7 -48 39 -83
72 l-63 59 22 38 c31 54 29 94 -9 131 l-31 31 18 38 c9 21 26 46 36 56 32 29
40 51 27 75 -14 26 -38 124 -39 155 0 21 2 22 28 10 15 -6 29 -14 32 -17 3 -3
22 -17 43 -29 32 -20 43 -22 63 -12 13 6 24 19 25 28 0 10 9 36 19 58 l18 40
26 -57 c26 -59 50 -80 76 -69 25 10 92 56 145 99 28 22 52 39 53 37 2 -2 -1
-20 -8 -40z m-905 -195 c49 -19 117 -12 157 15 20 14 39 25 41 25 2 0 7 -21
10 -47 6 -54 41 -93 83 -93 28 0 29 -2 8 -41 -20 -40 -10 -87 21 -99 32 -12
36 -33 13 -71 -11 -19 -21 -35 -23 -37 -1 -1 -28 7 -60 18 -58 20 -77 24 -245
55 -90 16 -218 20 -320 9 -47 -5 -61 -4 -55 5 7 12 -39 91 -53 91 -4 0 -13 9
-20 20 -11 19 -10 19 33 14 41 -6 44 -5 50 18 3 13 5 28 4 34 -5 28 3 34 49
34 44 0 49 3 72 38 24 35 28 37 77 37 37 1 61 7 80 21 l28 21 12 -28 c7 -16
24 -34 38 -39z m-902 -317 c5 -8 29 -13 57 -13 l48 0 7 -42 c5 -29 4 -43 -4
-46 -22 -7 -155 -118 -208 -173 -29 -31 -83 -108 -123 -179 -40 -69 -74 -127
-76 -129 -5 -6 -68 36 -93 63 -24 25 -24 27 -5 40 16 12 17 18 7 48 -7 18 -15
50 -18 70 -6 34 -5 38 18 43 44 11 70 49 75 109 4 47 8 55 28 60 46 12 61 41
74 147 7 55 17 102 23 106 5 3 22 -8 36 -26 39 -47 74 -43 109 13 l27 43 5
-61 c3 -33 9 -67 13 -73z m497 46 c0 -5 -7 -9 -15 -9 -9 0 -12 6 -9 15 6 15
24 11 24 -6z m-135 -29 c-37 -8 -41 -5 -25 15 10 12 16 12 34 3 20 -12 20 -12
-9 -18z m-99 -10 c24 0 15 -15 -15 -27 -31 -11 -31 -11 -15 35 4 11 8 13 11 5
3 -7 11 -13 19 -13z m-76 -60 c0 -5 -4 -10 -10 -10 -5 0 -10 5 -10 10 0 6 5
10 10 10 6 0 10 -4 10 -10z m-722 -67 c41 -69 67 -145 58 -168 -2 -7 2 -39 10
-70 18 -70 9 -82 -45 -58 -54 24 -95 23 -99 -3 -2 -16 5 -23 36 -32 24 -7 75
-44 135 -96 53 -46 100 -86 106 -87 9 -3 -22 -134 -34 -147 -2 -2 -35 14 -73
37 -38 22 -95 50 -126 62 -32 11 -60 27 -63 35 -3 8 -16 14 -28 14 -37 0 -41
-34 -10 -93 50 -96 51 -92 -19 -92 -39 0 -78 -7 -103 -19 -31 -14 -45 -15 -60
-7 -22 11 -87 -2 -98 -19 -4 -6 -13 -10 -22 -10 -12 0 -14 7 -8 38 3 20 13 49
20 65 12 23 11 29 -2 43 -9 9 -22 12 -32 8 -80 -33 -121 -18 -121 44 0 30 9
44 70 102 90 86 91 110 4 124 -22 4 -55 16 -73 27 -27 16 -30 22 -21 38 17 32
63 59 156 92 115 40 124 45 124 72 0 15 -15 33 -51 57 -28 18 -53 38 -56 43
-8 13 167 -11 320 -45 67 -14 82 0 63 57 -12 35 -13 55 -2 55 2 0 22 -30 44
-67z m2589 -130 c19 -29 27 -29 67 2 18 14 36 25 39 25 4 0 7 -26 7 -58 0 -71
19 -102 62 -102 25 0 29 -3 22 -17 -26 -60 -11 -135 35 -177 l21 -19 -30 -18
c-48 -30 -48 -65 -2 -171 2 -5 -12 -8 -32 -8 -22 0 -38 -6 -44 -16 -10 -18 1
-82 19 -116 10 -18 8 -19 -13 -13 -12 4 -35 14 -50 21 -15 8 -39 14 -54 14
-24 0 -26 -2 -22 -37 3 -21 8 -46 12 -55 7 -16 2 -18 -37 -18 -38 0 -49 5 -66
28 -16 22 -23 25 -38 16 -11 -7 -18 -23 -18 -43 0 -34 6 -34 -88 -4 -26 9 -49
18 -51 22 -3 3 -19 67 -36 141 -20 84 -46 166 -70 215 -57 118 -70 154 -59
160 5 4 9 12 9 20 0 7 9 34 19 59 l20 45 40 -22 c50 -27 73 -17 82 37 8 47 9
48 46 34 43 -16 58 -7 86 56 l25 55 42 -16 c23 -9 49 -27 57 -40z m497 -190
c3 -21 8 -59 11 -85 7 -54 46 -101 92 -112 48 -11 133 -48 133 -57 0 -5 -10
-17 -22 -27 -131 -106 -131 -117 -1 -260 l72 -80 -43 -11 c-59 -15 -88 -60
-84 -128 l3 -47 -54 -4 c-30 -2 -81 1 -113 8 -74 14 -102 7 -94 -25 5 -21 2
-24 -26 -27 -18 -2 -48 1 -65 6 -37 11 -41 27 -21 100 11 40 10 47 -7 66 -10
11 -31 20 -47 20 -41 0 -127 -38 -164 -72 -36 -33 -41 -29 -52 34 -6 34 -12
44 -30 46 -12 2 -22 10 -22 17 0 11 13 13 64 8 58 -5 65 -4 75 15 8 14 8 29 1
47 -13 35 -13 37 9 26 10 -6 42 -11 71 -13 67 -4 84 15 52 59 -11 16 -24 41
-27 56 -8 31 0 33 59 12 22 -8 43 -12 48 -9 17 11 7 46 -27 97 -19 28 -37 66
-41 84 -6 29 -4 32 40 51 49 22 58 43 31 72 -13 14 -12 20 12 53 24 34 133
117 153 117 5 0 11 -17 14 -37z m-3021 -352 c76 -44 78 -47 71 -76 -4 -16 -8
-75 -10 -130 -2 -55 -6 -160 -10 -233 l-7 -132 -32 -20 c-17 -11 -40 -28 -50
-40 -26 -29 -33 -25 -37 18 -3 32 -7 37 -30 40 -22 3 -40 -8 -84 -50 l-56 -53
6 60 c9 86 -6 111 -63 107 -24 -1 -52 -7 -62 -13 -11 -5 -19 -7 -19 -4 0 8 33
75 50 101 11 19 11 26 -6 55 -11 19 -35 44 -53 56 -35 24 -34 25 29 41 27 6
36 14 38 33 3 24 5 25 48 19 77 -12 92 35 33 99 -16 18 -29 35 -29 37 0 3 40
4 89 2 49 -1 93 0 97 4 4 4 -3 34 -15 66 -11 33 -21 62 -21 65 0 12 50 -9 123
-52z m2357 -295 c41 -13 74 -27 74 -31 -2 -10 -125 -105 -135 -105 -4 0 -10 8
-13 18 -9 30 -16 142 -8 142 4 0 41 -11 82 -24z m402 -72 c4 -3 0 -21 -8 -39
-17 -42 -18 -96 -1 -117 16 -22 111 -40 164 -32 24 3 55 15 69 26 30 24 41 17
26 -17 -11 -25 -125 -105 -149 -105 -20 0 -33 -36 -33 -92 0 -63 33 -124 96
-177 33 -28 35 -32 14 -26 -14 4 -40 16 -58 27 -29 18 -37 19 -58 7 -33 -17
-39 -48 -26 -127 6 -36 9 -68 6 -71 -2 -3 -31 21 -63 53 -42 42 -64 57 -76 52
-14 -5 -16 -14 -11 -42 4 -19 10 -42 13 -50 12 -33 -78 2 -102 40 -26 39 -59
34 -102 -14 -20 -22 -39 -40 -43 -40 -3 0 -10 19 -16 43 -13 59 -41 62 -84 7
-29 -36 -34 -40 -43 -25 -6 12 -5 25 3 41 11 19 11 26 0 39 -17 21 -22 20 -75
-21 -43 -32 -46 -33 -40 -12 4 13 16 40 26 60 29 58 80 262 93 373 l11 99 90
68 c49 37 93 68 97 68 4 0 12 -16 17 -36 11 -39 37 -74 55 -74 7 0 28 16 47
35 20 19 61 46 90 60 58 27 63 28 71 19z m-2697 -333 c-2 -2 -21 0 -42 4 l-38
7 35 31 34 31 7 -35 c4 -18 6 -36 4 -38z m21 -118 c11 -64 56 -236 72 -277 8
-21 37 -77 64 -123 41 -71 128 -302 128 -338 0 -7 -8 -19 -18 -28 -9 -8 -30
-40 -45 -70 -35 -66 -73 -114 -82 -105 -4 4 -10 22 -14 40 -10 51 -43 50 -72
-1 -23 -41 -38 -52 -40 -28 -1 12 -2 19 -14 85 -9 46 -39 47 -94 1 -38 -31
-66 -37 -74 -16 -6 17 17 133 34 171 20 44 0 53 -64 31 -118 -40 -118 19 2
185 84 117 80 139 -21 140 -21 0 -38 3 -38 8 0 11 92 98 113 105 23 9 22 38
-3 70 l-21 26 27 17 c14 10 50 26 78 35 36 12 52 23 54 38 3 21 -23 70 -45 84
-7 4 -13 12 -13 18 0 5 18 0 40 -11 32 -16 40 -27 46 -57z m2140 -282 c-8 -12
37 -75 56 -79 11 -2 26 11 40 32 26 40 34 44 42 18 9 -28 45 -62 64 -62 9 0
27 18 40 41 30 53 40 44 12 -11 -26 -51 -19 -75 26 -92 18 -6 34 -16 34 -20 0
-4 -16 -28 -35 -54 -50 -65 -50 -101 1 -185 40 -67 42 -79 12 -80 -13 -1 -34
-2 -48 -2 l-25 -2 3 -122 c2 -83 0 -123 -7 -123 -6 0 -11 8 -11 19 0 10 -7 24
-16 31 -23 20 -54 -16 -69 -81 l-12 -54 -23 38 c-29 48 -53 48 -81 -3 -26 -45
-40 -41 -59 16 -9 27 -17 34 -32 32 -21 -3 -31 -16 -43 -52 -8 -27 -15 -15
-23 41 -10 64 -38 67 -67 7 l-20 -42 -19 25 c-10 14 -41 34 -68 46 -36 15 -48
25 -44 36 2 9 21 59 41 111 21 52 50 130 65 172 16 42 42 103 58 135 16 32 44
95 62 141 31 79 42 93 55 72 12 -20 36 -9 56 25 12 19 25 35 31 35 5 0 7 -4 4
-9z"/>
<path d="M1946 4744 c-23 -22 -20 -51 9 -79 28 -29 57 -32 79 -9 24 23 19 60
-10 83 -32 25 -57 27 -78 5z"/>
<path d="M1723 4703 c-20 -8 -15 -67 7 -91 23 -25 33 -27 61 -12 19 11 26 54
11 76 -16 24 -54 38 -79 27z"/>
<path d="M3335 4424 c-51 -60 -57 -97 -17 -102 41 -6 110 92 95 135 -11 29
-34 19 -78 -33z"/>
<path d="M3447 4282 c-42 -43 -50 -86 -17 -95 23 -6 74 26 103 65 20 27 20 28
2 48 -26 29 -46 25 -88 -18z"/>
<path d="M2497 4443 c-16 -15 -6 -62 15 -77 20 -14 24 -14 37 -1 13 13 13 19
3 35 -6 11 -12 27 -12 35 0 15 -31 21 -43 8z"/>
<path d="M2696 4408 c-31 -44 -10 -110 29 -94 12 4 15 18 13 58 -3 57 -18 70
-42 36z"/>
<path d="M1606 4071 c-23 -25 -11 -51 25 -51 25 0 29 4 29 29 0 17 -6 31 -16
35 -21 8 -19 9 -38 -13z"/>
<path d="M1494 3966 c-13 -33 0 -51 36 -51 38 0 52 24 30 50 -16 19 -59 19
-66 1z"/>
<path d="M893 3828 c-15 -20 -23 -62 -14 -76 12 -20 81 -28 92 -11 32 50 -42
132 -78 87z"/>
<path d="M851 3596 c-19 -22 -9 -68 15 -77 26 -9 68 10 72 34 8 42 -60 75 -87
43z"/>
<path d="M3755 3718 c-30 -16 -95 -80 -95 -94 0 -30 35 -22 91 22 63 50 65 54
47 72 -14 14 -17 14 -43 0z"/>
<path d="M3793 3533 c-60 -33 -79 -62 -53 -78 12 -8 146 60 153 78 6 16 -11
37 -27 36 -6 0 -39 -16 -73 -36z"/>
<path d="M4238 3395 c-54 -30 -22 -81 41 -69 36 8 64 36 59 61 -4 24 -63 28
-100 8z"/>
<path d="M4277 3242 c-57 -35 -19 -88 57 -80 40 4 69 50 46 71 -25 23 -72 27
-103 9z"/>
<path d="M1144 3106 c-4 -10 -15 -13 -41 -9 -33 6 -34 5 -31 -23 2 -22 11 -31
41 -43 36 -13 39 -13 62 9 24 22 27 42 12 68 -11 16 -36 15 -43 -2z"/>
<path d="M1173 2954 c-4 -11 -13 -13 -33 -9 -18 4 -31 1 -41 -11 -12 -14 -10
-19 11 -36 35 -28 91 -21 107 14 7 14 10 33 7 42 -8 20 -43 21 -51 0z"/>
<path d="M3888 2772 c-60 -13 -68 -18 -68 -39 0 -21 4 -23 43 -22 62 1 121 21
125 43 4 16 -14 38 -28 35 -3 -1 -35 -8 -72 -17z"/>
<path d="M3803 2594 c-11 -30 25 -45 102 -42 59 3 70 6 73 22 6 28 -15 36 -96
36 -58 0 -74 -3 -79 -16z"/>
<path d="M1294 2066 c-9 -24 0 -58 19 -70 15 -9 22 -7 38 13 23 28 24 35 3 55
-19 20 -53 21 -60 2z"/>
<path d="M1415 1914 c-20 -20 -16 -53 8 -68 36 -23 75 35 47 70 -16 18 -35 18
-55 -2z"/>
<path d="M3480 2005 c0 -28 21 -42 79 -51 51 -8 94 15 89 49 -3 25 -36 36 -49
16 -6 -10 -16 -10 -47 -1 -59 18 -72 16 -72 -13z"/>
<path d="M3570 1831 c-13 -25 -29 -26 -68 -4 -31 18 -62 12 -62 -11 0 -9 17
-27 37 -41 70 -47 149 -24 141 42 -4 34 -32 42 -48 14z"/>
<path d="M2349 3432 c-20 -8 -105 -82 -95 -82 4 0 1 -7 -8 -15 -14 -14 -56
-115 -56 -135 0 -5 -4 -12 -10 -15 -5 -3 -25 26 -45 66 -19 39 -40 78 -46 85
-17 20 -49 18 -49 -4 0 -16 99 -211 120 -237 5 -6 17 -33 28 -61 11 -28 52
-116 90 -195 38 -79 78 -172 88 -207 19 -66 43 -92 63 -68 14 17 -25 149 -69
235 -83 162 -133 278 -132 309 3 74 59 207 106 251 31 30 77 32 107 5 12 -10
33 -43 46 -72 17 -40 28 -52 39 -48 9 3 18 6 20 6 11 0 2 40 -20 86 -39 84
-112 123 -177 96z"/>
<path d="M2701 3377 c-35 -17 -49 -43 -33 -59 10 -10 19 -9 45 5 30 18 32 18
44 1 8 -11 13 -48 13 -98 0 -83 -15 -240 -24 -255 -3 -4 -22 -5 -43 -2 -21 4
-59 4 -86 1 -121 -16 -177 -172 -100 -282 32 -47 108 -100 138 -96 37 5 28 34
-19 62 -25 15 -57 42 -72 61 -23 31 -26 42 -22 90 6 77 42 115 107 115 96 0
91 9 91 -171 0 -182 8 -214 63 -247 40 -26 70 -28 87 -7 15 18 -2 45 -30 45
-10 0 -28 9 -41 19 -24 19 -24 22 -23 203 0 100 6 215 13 254 14 83 19 288 7
322 -7 22 -53 52 -78 52 -7 0 -24 -6 -37 -13z"/>
<path d="M1725 3290 c-59 -15 -85 -30 -126 -72 -72 -75 -101 -162 -103 -313
-1 -82 1 -89 76 -270 47 -114 193 -282 285 -329 86 -43 167 -33 203 26 33 52
14 128 -32 128 -16 0 -18 -7 -16 -52 3 -47 1 -53 -24 -67 -21 -12 -31 -13 -50
-4 -13 6 -44 21 -70 33 -53 24 -142 115 -199 202 -20 32 -55 104 -78 161 -33
84 -41 116 -41 169 0 105 15 162 58 221 49 65 68 82 115 102 74 31 147 14 215
-49 26 -23 67 -103 77 -151 4 -16 31 -106 61 -198 83 -259 94 -343 95 -754 1
-397 -7 -596 -27 -706 -8 -44 -11 -84 -8 -89 11 -18 -126 1 -173 23 -62 30
-87 5 -40 -39 26 -25 85 -34 327 -54 175 -15 438 -17 566 -6 93 8 166 38 172
72 7 32 -18 35 -71 7 l-51 -26 -261 0 c-283 0 -441 11 -426 29 5 6 16 47 25
91 12 64 16 169 19 525 2 245 1 490 -4 545 -9 119 -36 238 -90 398 -22 65 -41
128 -41 140 -2 47 -30 123 -64 173 -80 116 -185 163 -299 134z"/>
<path d="M3006 3058 c-13 -46 -31 -137 -40 -203 -24 -176 -23 -172 -45 -277
-22 -104 -20 -128 10 -128 24 0 21 -8 54 170 l27 145 44 33 c66 49 79 42 79
-43 0 -52 -9 -97 -34 -175 -19 -57 -41 -116 -48 -130 -14 -26 -17 -63 -7 -73
21 -20 61 40 90 136 18 57 50 114 83 144 22 21 86 41 97 31 2 -3 0 -28 -6 -57
-13 -71 -75 -199 -142 -296 -72 -105 -202 -374 -233 -484 -43 -156 -95 -387
-95 -427 0 -27 25 -43 41 -27 6 6 18 57 29 114 10 57 37 174 60 259 35 129 56
182 122 315 44 88 97 184 117 213 68 99 104 167 132 247 60 167 24 239 -94
190 -20 -8 -38 -11 -40 -7 -3 4 -8 31 -12 61 -13 97 -70 123 -149 68 l-28 -20
6 29 c3 16 8 52 11 79 4 28 16 76 27 108 17 46 18 60 8 72 -25 30 -39 15 -64
-67z"/>
<path d="M1785 3031 c-50 -23 -66 -49 -72 -121 -11 -122 81 -320 169 -366 28
-14 32 -14 46 0 14 14 11 20 -40 68 -45 44 -60 68 -87 138 -42 108 -46 194
-10 223 15 12 35 17 63 15 33 -2 41 1 44 16 8 39 -54 55 -113 27z"/>
<path d="M1701 1288 c-73 -49 -95 -160 -46 -232 l25 -37 -21 -28 c-22 -31 -38
-88 -39 -140 0 -24 9 -41 33 -65 l32 -32 -29 -24 c-33 -28 -62 -87 -70 -147
-9 -73 45 -118 149 -121 67 -3 89 6 83 34 -3 16 -11 19 -58 16 -69 -4 -120 24
-120 63 0 53 28 97 100 155 33 27 39 58 13 66 -79 25 -90 39 -79 99 7 36 62
109 84 111 30 2 33 5 30 26 -2 17 -13 25 -41 31 -50 12 -72 45 -62 94 9 53 29
80 71 98 25 10 35 20 32 32 -5 27 -49 27 -87 1z"/>
<path d="M1884 1015 c-10 -26 4 -44 38 -49 148 -22 224 -26 528 -27 204 0 367
4 397 10 73 14 113 37 113 62 0 24 -5 23 -115 -4 -84 -21 -783 -15 -882 8 -78
18 -72 18 -79 0z"/>
<path d="M2945 786 c-76 -33 -195 -41 -637 -41 -435 0 -459 -2 -440 -32 12
-19 257 -31 532 -26 146 2 285 4 310 4 52 -1 212 25 252 41 40 15 53 34 38 53
-15 18 -17 18 -55 1z"/>
<path d="M2953 495 c-10 -7 -60 -27 -110 -44 l-91 -31 -189 6 c-103 3 -213 9
-244 15 -31 5 -135 14 -230 20 -96 5 -189 12 -206 15 -25 5 -34 2 -40 -11 -4
-11 0 -22 10 -30 25 -18 388 -51 727 -65 l175 -7 99 33 c113 38 146 57 146 83
0 25 -23 33 -47 16z"/>
<path d="M2244 295 c-11 -26 5 -124 26 -164 33 -66 115 -119 163 -107 13 3 36
18 50 32 24 23 27 35 27 91 0 61 -2 67 -34 99 -21 21 -44 34 -60 34 -37 0 -33
-26 9 -64 34 -30 35 -33 29 -79 -5 -38 -11 -48 -30 -53 -59 -15 -110 46 -128
154 -8 50 -15 68 -29 70 -9 2 -20 -4 -23 -13z"/>
</g>
</svg>
